<svg width="48" height="48" viewBox="0 0 48 48" fill="none" xmlns="http://www.w3.org/2000/svg">
<path d="M24.0041 1.50244C18.2128 1.50244 13.4987 6.20805 13.4987 11.9993C13.4987 17.7906 18.2128 22.5019 24.0041 22.5019C29.7926 22.5019 34.501 17.7906 34.501 11.9993C34.501 6.20805 29.7926 1.50244 24.0041 1.50244ZM24.0013 4.49589C24.3755 4.49589 24.7497 4.74534 24.7497 5.24708V6.86286C26.0366 7.19736 26.9976 8.36525 26.9976 9.75426C26.9976 9.95349 26.9184 10.1446 26.7776 10.2854C26.6367 10.4263 26.4456 10.5055 26.2464 10.5055C26.0472 10.5055 25.8561 10.4263 25.7152 10.2854C25.5743 10.1446 25.4952 9.95349 25.4952 9.75426C25.4971 9.55753 25.4599 9.36238 25.3857 9.18016C25.3115 8.99793 25.2019 8.83225 25.0632 8.69274C24.9245 8.55323 24.7594 8.44266 24.5776 8.36747C24.3958 8.29227 24.2009 8.25394 24.0041 8.2547C23.8064 8.25319 23.6104 8.29102 23.4274 8.36599C23.2445 8.44096 23.0782 8.55156 22.9384 8.69138C22.7986 8.83119 22.688 8.99741 22.613 9.18037C22.5381 9.36333 22.5002 9.55937 22.5018 9.75709C22.5018 10.5933 23.1651 11.2566 24.0041 11.2566C24.7981 11.2596 25.5586 11.5768 26.1195 12.1387C26.6804 12.7007 26.9961 13.4618 26.9976 14.2558C26.9976 15.6448 26.0366 16.8155 24.7497 17.15V18.7516C24.7497 19.7523 23.2501 19.7523 23.2501 18.7516V17.15C22.6096 16.9823 22.0423 16.6082 21.6359 16.0855C21.2295 15.5628 21.0068 14.9207 21.0022 14.2586C21.0022 14.0594 21.0813 13.8683 21.2222 13.7274C21.3631 13.5865 21.5542 13.5074 21.7534 13.5074C21.9526 13.5074 22.1437 13.5865 22.2846 13.7274C22.4254 13.8683 22.5046 14.0594 22.5046 14.2586C22.5046 15.0948 23.1651 15.7582 24.0041 15.7582C24.8404 15.7582 25.498 15.0948 25.498 14.2558C25.498 13.4167 24.8404 12.7562 24.0041 12.7562C23.2089 12.754 22.4468 12.4375 21.8839 11.8757C21.321 11.3139 21.0031 10.5523 20.9994 9.75709C20.9994 8.36809 21.9632 7.20303 23.2501 6.8657V5.24425C23.2501 4.74251 23.6243 4.49589 24.0013 4.49589ZM43.0165 20.3986C42.1094 20.3986 41.1938 20.7472 40.5049 21.4389L35.754 26.187C36.3776 27.0516 36.7518 28.1061 36.7518 29.2485C36.7518 32.1456 34.399 34.4984 31.5019 34.4984H23.3266C22.2381 34.5976 22.2381 32.9081 23.3266 33.0045H31.5019C33.5911 33.0045 35.2494 31.3405 35.2494 29.2513C35.2494 28.5143 35.0368 27.8397 34.6768 27.267C34.3365 26.7318 33.8678 26.2901 33.3133 25.9821C32.7589 25.6742 32.1362 25.5098 31.5019 25.5039H15.7495C12.5633 25.5039 10.7944 27.1508 9.31472 28.6305L19.7266 39.0452C19.8882 39.0169 20.0582 39.0027 20.251 39.0027H33.0015C35.5811 39.0027 37.7354 37.7271 39.2577 35.5189C40.9755 33.03 44.1929 28.3754 45.6159 26.3628C46.1318 25.6258 46.4635 24.7867 46.4947 23.9136C46.5135 23.4569 46.4376 23.0013 46.2718 22.5754C46.1059 22.1495 45.8536 21.7625 45.5309 21.4389C45.2008 21.1086 44.8088 20.8467 44.3773 20.6682C43.9459 20.4897 43.4834 20.398 43.0165 20.3986ZM6.74931 28.5001C6.65138 28.5 6.55437 28.5192 6.46389 28.5566C6.3734 28.5941 6.29121 28.6491 6.22206 28.7184L1.72055 33.2228C1.65027 33.2926 1.5945 33.3756 1.55644 33.4671C1.51837 33.5585 1.49878 33.6566 1.49878 33.7557C1.49878 33.8547 1.51837 33.9528 1.55644 34.0443C1.5945 34.1357 1.65027 34.2188 1.72055 34.2886L13.7255 46.2851C14.0175 46.5742 14.4909 46.5742 14.7829 46.2851L19.2815 41.7836C19.4209 41.6429 19.4991 41.4529 19.4991 41.2549C19.4991 41.0569 19.4209 40.8669 19.2815 40.7262L7.2794 28.7156C7.20973 28.6461 7.12705 28.5911 7.03609 28.5537C6.94513 28.5162 6.84768 28.4999 6.74931 28.5001Z" fill="#02828E"/>
</svg>
